<?xml version="1.0" encoding="UTF-8" standalone="no"?>
<!DOCTYPE svg PUBLIC "-//W3C//DTD SVG 1.1//EN" "http://www.w3.org/Graphics/SVG/1.1/DTD/svg11.dtd">
<svg width="100%" height="100%" viewBox="0 0 1024 1024" version="1.1" xmlns="http://www.w3.org/2000/svg" xmlns:xlink="http://www.w3.org/1999/xlink" xml:space="preserve" xmlns:serif="http://www.serif.com/" style="fill-rule:evenodd;clip-rule:evenodd;stroke-linejoin:round;stroke-miterlimit:2;">
    <g id="Button" transform="matrix(1.02993,-1.02993,1.02993,1.02993,-318.962,144.107)">
        <g transform="matrix(1.00815,0,0,1.00815,-298.912,-1.32517)">
            <circle cx="519.484" cy="192.32" r="29.757" style="fill:white;"/>
        </g>
        <g transform="matrix(1,-1.34169e-16,-4.11974e-16,2.00018,1.48123e-13,-192.598)">
            <rect x="194.807" y="192.563" width="60" height="30" style="fill:white;"/>
        </g>
        <g transform="matrix(-0.589965,0.589965,-0.527681,-0.527681,820.314,589.917)">
            <path d="M466.606,406.378C472.961,393.667 484.969,385.791 497.994,385.791C511.019,385.791 523.026,393.667 529.382,406.378C563.717,475.048 618.345,584.304 652.084,651.782C658.31,664.233 658.168,679.439 651.713,691.743C645.257,704.046 633.454,711.604 620.696,711.604L375.292,711.604C362.534,711.604 350.731,704.046 344.275,691.743C337.82,679.439 337.678,664.233 343.904,651.782C377.643,584.304 432.271,475.048 466.606,406.378Z" style="fill:white;"/>
        </g>
    </g>
    <g id="Timer-Body" serif:id="Timer Body" transform="matrix(1.02993,1.02993,-1.02993,1.02993,511.98,-543.056)">
        <path d="M512.174,160.001L512.266,160C705.48,160 864,318.52 864,512C864,705.213 705.212,864 512,864C318.52,864 160,705.213 160,512C160,426.069 192.291,346.808 244.597,285.696C257.674,268.883 277.956,267.548 290.498,280.091C303.042,292.901 301.44,309.18 290.232,324.124C246.999,374.562 221.113,440.213 220.846,512C220.579,672.922 350.544,802.887 512,802.887C673.457,802.887 802.885,672.922 802.885,512C802.885,358.017 685.465,232.589 533.883,221.113L514.648,220.791C513.775,220.866 512.892,220.905 512,220.905C495.193,220.905 481.548,207.26 481.548,190.452C481.548,173.645 495.193,160 512,160L512.174,160.001Z" style="fill:white;fill-rule:nonzero;"/>
    </g>
</svg>
